<svg xmlns="http://www.w3.org/2000/svg" viewBox="0 0 147.05 145.56"><defs><style>.cls-1,.cls-4{fill:#5edefc;}.cls-1{fill-rule:evenodd;}.cls-2{fill:#fff;}.cls-3{fill:#1d1d1b;}</style></defs><g id="Layer_2" data-name="Layer 2"><g id="Layer_1-2" data-name="Layer 1"><path d="M102,53.08c.5.34,1,.69,1.47,1.07h0c7.16-11,15.91-21.93,26.09-30.12,13.46-10.82,22.32-6,14.7,11.27C138,49.42,127,63.92,115.8,74.7A46.63,46.63,0,0,1,117,85.34c0,9.84-3,18.79-7.85,25.3-5,6.75-12,10.92-19.79,10.92H36.45c-17.44,0-25.84-10.09-29.23-25.95a49.37,49.37,0,0,1,0-20.54C10.61,59.21,19,49.13,36.45,49.13H78.91c.37-1.32.78-2.67,1.22-4C84.22,32.32,89.89,19.32,97.82,8.5c10.27-14,19.76-10.06,17.1,7.1-2,12.86-7,25.82-12.94,37.48Z"/><path class="cls-1" d="M95.83,88.35c-1.36,2.37-3.68,3.58-5.17,2.72s-1.6-3.47-.23-5.84,3.68-3.58,5.17-2.72,1.6,3.48.23,5.84M81.49,80.07c-1.37,2.36-3.69,3.58-5.18,2.72s-1.59-3.48-.23-5.84,3.68-3.58,5.18-2.72S82.85,77.7,81.49,80.07Zm.66,9.17c1.49.86,2.66,2.91,1.93,4.19s-3.1,1.29-4.59.42-2.66-2.91-1.93-4.18S80.66,88.38,82.15,89.24ZM90,67.31h0l-.1,0c-2.38-.63-.15-4.06.73-5.37a106.62,106.62,0,0,0,6.55-11.3c1.61-3.17,3.19-6.6,4.68-10.2a117.58,117.58,0,0,0,7.73-25.62c1.79-11.57-.56-12.54-7.48-3.11a126.79,126.79,0,0,0-17.46,35.1c-1.36,4.3-2.52,8.34-3.8,11.79-2,5.25-3.31,7.32-8.11,10.77s-5.65,10-5.65,16c0,8,2.15,20.45,11.38,22.33,12.87,2.62,25.33-7.7,25.57-20.4v-.06h0c0-4.23,5.39-13.66,9.94-18.29C124,58.84,133.67,46,139.33,33.13c4.7-10.68,2.7-12.26-6.43-4.92-9.94,8-18.56,18.86-25.48,29.68A107.51,107.51,0,0,0,102,67.35a1.27,1.27,0,0,0,.22,1.47c.42.44.82.88,1.2,1.34,1.68,2-2.22,5.73-4,3.53l-.13-.15A20.57,20.57,0,0,0,90,67.31Z"/><path class="cls-2" d="M19.62,110.71a19.36,19.36,0,0,0,13.59,5.47,49.71,49.71,0,0,1-3.84-5.47ZM74.81,54.55l0,0H34.9c-6.85,0-14.9,2-19.89,13.67a43.93,43.93,0,0,0,0,34.32c.41,1,.85,1.91,1.33,2.83h15a1.9,1.9,0,0,1,1.69,1,43,43,0,0,0,2.75,4.38c1.67,2.34,3.61,5.47,6.84,5.47H74.86l0,0c-9-7.31-13.09-19.56-13.09-30.82C61.75,73.91,65.88,61.91,74.81,54.55Z"/><path class="cls-3" d="M10,130.2H7.67v8.38H9.56a1.58,1.58,0,0,1,1.08.3,1.19,1.19,0,0,1,.32.94,1.24,1.24,0,0,1-.32,1,1.64,1.64,0,0,1-1.08.29H2.88a1.61,1.61,0,0,1-1.07-.29,1.57,1.57,0,0,1,0-1.91,1.64,1.64,0,0,1,1.08-.29H4.77V130.2H2.42l-.07,2.28v.28a1.14,1.14,0,0,1-.3.84,1.07,1.07,0,0,1-.82.31,1.23,1.23,0,0,1-.93-.32,1.48,1.48,0,0,1-.3-1v-.09l.12-3.36c0-.67.12-1.07.28-1.21a1.68,1.68,0,0,1,1-.2h9.67a1.7,1.7,0,0,1,1,.2c.16.14.25.54.29,1.21l.11,3.36v.09a1.55,1.55,0,0,1-.28,1,1.17,1.17,0,0,1-.91.32,1.13,1.13,0,0,1-.88-.31,1.87,1.87,0,0,1-.28-1.12Z"/><path class="cls-3" d="M24.63,138.61h.18a1.12,1.12,0,0,1,1.25,1.23,1.18,1.18,0,0,1-.34.94,1.65,1.65,0,0,1-1.09.29H23.57a1.41,1.41,0,0,1-.84-.21,1.62,1.62,0,0,1-.45-.78,8,8,0,0,1-2,.95,7.31,7.31,0,0,1-2.12.32,4.19,4.19,0,0,1-2.84-.9,3.09,3.09,0,0,1-1-2.46,3,3,0,0,1,1.34-2.62,6.53,6.53,0,0,1,3.76-.93,11.36,11.36,0,0,1,1.14.05c.41,0,.86.1,1.37.18v-.21a2.21,2.21,0,0,0-.49-1.54,1.86,1.86,0,0,0-1.45-.53,4.58,4.58,0,0,0-1.89.55,4.55,4.55,0,0,1-1.7.55,1.17,1.17,0,0,1-.85-.31,1.06,1.06,0,0,1-.33-.81c0-.61.45-1.09,1.34-1.45a10.07,10.07,0,0,1,3.62-.53,5.08,5.08,0,0,1,3.43.92,4,4,0,0,1,1,3.13Zm-2.72-2.17a9.69,9.69,0,0,0-1-.19,7,7,0,0,0-.88-.06,3.8,3.8,0,0,0-1.94.42,1.28,1.28,0,0,0-.7,1.14,1.18,1.18,0,0,0,.45,1,2.09,2.09,0,0,0,1.29.34,4.71,4.71,0,0,0,1.47-.22,5.45,5.45,0,0,0,1.35-.7Z"/><path class="cls-3" d="M30.89,140.91a2.29,2.29,0,0,1-.6.35,2,2,0,0,1-.64.11.81.81,0,0,1-.68-.25,1.74,1.74,0,0,1-.19-1v-1.5A1.77,1.77,0,0,1,29,137.6a1,1,0,0,1,.86-.31,1.27,1.27,0,0,1,1.08.64,2.9,2.9,0,0,0,.42.52,3.47,3.47,0,0,0,1.28.74,5,5,0,0,0,1.66.25,2.32,2.32,0,0,0,1.29-.32.92.92,0,0,0,.49-.82c0-.6-.87-1-2.6-1.26q-.57-.06-.9-.12a5.79,5.79,0,0,1-2.91-1.06,2.62,2.62,0,0,1-1-2.13,2.86,2.86,0,0,1,1.15-2.45,5.31,5.31,0,0,1,3.27-.87,9.67,9.67,0,0,1,1.5.12,11.91,11.91,0,0,1,1.58.36,1.84,1.84,0,0,1,.5-.41,1.31,1.31,0,0,1,.59-.14.88.88,0,0,1,.71.29,1.32,1.32,0,0,1,.24.86v1.38a1,1,0,0,1-.25.75.89.89,0,0,1-.7.26,3.53,3.53,0,0,1-1.58-.8,3.77,3.77,0,0,0-2.24-.8,2.7,2.7,0,0,0-1.36.28.89.89,0,0,0-.48.8c0,.52.67.87,2,1l.92.12a7.78,7.78,0,0,1,3.49,1.1,2.58,2.58,0,0,1,.95,2.19,3.07,3.07,0,0,1-1.25,2.63,6,6,0,0,1-3.56.92,13.72,13.72,0,0,1-1.73-.11A11.78,11.78,0,0,1,30.89,140.91Z"/><path class="cls-3" d="M45.89,135l2.37-2.13a.86.86,0,0,1-.47-.31,1,1,0,0,1-.13-.59,1.29,1.29,0,0,1,.3-1,1.57,1.57,0,0,1,1.08-.28h2.49a1.61,1.61,0,0,1,1.08.28,1.19,1.19,0,0,1,.32.95,1.1,1.1,0,0,1-.18.71A1.31,1.31,0,0,1,52,133a2.91,2.91,0,0,0-.94.34,4.57,4.57,0,0,0-.95.79l-.8.83,3,3.69h.28a1.42,1.42,0,0,1,1,.3,1.18,1.18,0,0,1,.32.91,1.24,1.24,0,0,1-.32,1,1.69,1.69,0,0,1-1.1.29H49.67a1.74,1.74,0,0,1-1.06-.25.92.92,0,0,1-.32-.78,1,1,0,0,1,.19-.65,1.47,1.47,0,0,1,.63-.41l-1.83-2.24L45.89,138v2.32a.91.91,0,0,1-.14.58.7.7,0,0,1-.53.16h-2a1.58,1.58,0,0,1-1.06-.29,1.28,1.28,0,0,1-.32-1,1.07,1.07,0,0,1,1.2-1.21h.18v-9.76H43a1.21,1.21,0,0,1-.91-.33,1.27,1.27,0,0,1-.31-.92,1.25,1.25,0,0,1,.32-.95,1.58,1.58,0,0,1,1.08-.3h2a.7.7,0,0,1,.53.16.91.91,0,0,1,.14.58Z"/><path class="cls-4" d="M65.28,134a3.74,3.74,0,0,1,1.8,1.23,3.28,3.28,0,0,1,.57,2,3.6,3.6,0,0,1-.49,1.87,4,4,0,0,1-2.63,1.84,10.11,10.11,0,0,1-1.89.14H56.77a1.61,1.61,0,0,1-1.07-.29,1.28,1.28,0,0,1-.32-1,1.23,1.23,0,0,1,.31-.9,1.18,1.18,0,0,1,.89-.31h.2v-8.39h-.2a1.18,1.18,0,0,1-.89-.32,1.28,1.28,0,0,1-.31-.92,1.23,1.23,0,0,1,.33-.95,1.54,1.54,0,0,1,1.06-.3h5.17a5.9,5.9,0,0,1,3.6.93,3.51,3.51,0,0,1,.86,4.24A3,3,0,0,1,65.28,134Zm-5.74-3.85V133h1.52a4.18,4.18,0,0,0,1.95-.32,1.36,1.36,0,0,0,.06-2.17,3.07,3.07,0,0,0-1.66-.34Zm0,5.1v3.43h1.69a5.78,5.78,0,0,0,2.52-.4,1.36,1.36,0,0,0,.73-1.31,1.39,1.39,0,0,0-.7-1.33,5.4,5.4,0,0,0-2.44-.39Z"/><path class="cls-4" d="M77.1,133.14h-.18a1.23,1.23,0,0,1-.92-.31,1.29,1.29,0,0,1-.31-.92A1.22,1.22,0,0,1,76,131a1.62,1.62,0,0,1,1.09-.28h2.12a.76.76,0,0,1,.48.13.41.41,0,0,1,.16.35v7.45H80a1.26,1.26,0,0,1,.93.31,1.18,1.18,0,0,1,.32.9,1.25,1.25,0,0,1-.32,1,1.7,1.7,0,0,1-1.11.29H78a.77.77,0,0,1-.49-.13.45.45,0,0,1-.18-.38v-.85A3.54,3.54,0,0,1,76,140.92a3.93,3.93,0,0,1-1.84.41,3.24,3.24,0,0,1-2.69-1.09,5.31,5.31,0,0,1-.87-3.34v-3.76H70.4a1.09,1.09,0,0,1-1.24-1.23,1.22,1.22,0,0,1,.32-.95,1.67,1.67,0,0,1,1.11-.28H72.7a.68.68,0,0,1,.46.13.41.41,0,0,1,.16.35v5.23a3.72,3.72,0,0,0,.38,2,1.43,1.43,0,0,0,1.26.56,2,2,0,0,0,1.54-.69,2.68,2.68,0,0,0,.6-1.82Z"/><path class="cls-4" d="M93.86,138.58H94a1.34,1.34,0,0,1,.95.31,1.26,1.26,0,0,1,.31.93,1.28,1.28,0,0,1-.32,1,1.64,1.64,0,0,1-1.09.29H91.1a1.67,1.67,0,0,1-1.09-.29,1.24,1.24,0,0,1-.33-1,1.26,1.26,0,0,1,.32-.93,1.38,1.38,0,0,1,1-.31h.14v-3.25a3.63,3.63,0,0,0-.38-1.91,1.39,1.39,0,0,0-1.25-.57,2,2,0,0,0-1.53.68,2.67,2.67,0,0,0-.59,1.8v3.25h.14a1.32,1.32,0,0,1,1,.31,1.26,1.26,0,0,1,.32.93,1.24,1.24,0,0,1-.33,1,1.61,1.61,0,0,1-1.08.29H84.56a1.59,1.59,0,0,1-1.07-.29,1.24,1.24,0,0,1-.33-1,1.26,1.26,0,0,1,.31-.93,1.35,1.35,0,0,1,1-.31h.13v-5.44h-.19a1.25,1.25,0,0,1-.92-.31,1.19,1.19,0,0,1-.31-.9,1.28,1.28,0,0,1,.32-1,1.69,1.69,0,0,1,1.1-.29h1.92a.76.76,0,0,1,.47.12.45.45,0,0,1,.17.36V132a3.29,3.29,0,0,1,1.32-1.22,4,4,0,0,1,1.86-.41A3.23,3.23,0,0,1,93,131.5a5.24,5.24,0,0,1,.88,3.33Z"/><path class="cls-4" d="M107.69,138.58h.14a1.34,1.34,0,0,1,1,.31,1.26,1.26,0,0,1,.31.93,1.28,1.28,0,0,1-.32,1,1.61,1.61,0,0,1-1.08.29h-2.77a1.67,1.67,0,0,1-1.09-.29,1.24,1.24,0,0,1-.33-1,1.26,1.26,0,0,1,.32-.93,1.38,1.38,0,0,1,1-.31h.14v-3.25a3.63,3.63,0,0,0-.38-1.91,1.39,1.39,0,0,0-1.25-.57,2,2,0,0,0-1.53.68,2.67,2.67,0,0,0-.59,1.8v3.25h.14a1.32,1.32,0,0,1,1,.31,1.26,1.26,0,0,1,.32.93,1.24,1.24,0,0,1-.33,1,1.61,1.61,0,0,1-1.08.29H98.38a1.59,1.59,0,0,1-1.07-.29,1.24,1.24,0,0,1-.33-1,1.26,1.26,0,0,1,.31-.93,1.35,1.35,0,0,1,1-.31h.13v-5.44h-.19a1.25,1.25,0,0,1-.92-.31,1.19,1.19,0,0,1-.31-.9,1.28,1.28,0,0,1,.32-1,1.69,1.69,0,0,1,1.1-.29h1.92a.76.76,0,0,1,.47.12.45.45,0,0,1,.17.36V132a3.29,3.29,0,0,1,1.32-1.22,4.08,4.08,0,0,1,1.86-.41,3.23,3.23,0,0,1,2.68,1.09,5.23,5.23,0,0,1,.89,3.33Z"/><path class="cls-4" d="M114.8,133.14l2,4.79,2.12-4.79h-.18a1.25,1.25,0,0,1-.92-.31,1.22,1.22,0,0,1-.33-.92,1.19,1.19,0,0,1,.33-.95,1.65,1.65,0,0,1,1.1-.28h2.65a1.65,1.65,0,0,1,1.1.29,1.18,1.18,0,0,1,.32.94,1.09,1.09,0,0,1-1.23,1.23h-.19L117,143.07h.51a1.7,1.7,0,0,1,1.1.29,1.24,1.24,0,0,1,.33,1,1.19,1.19,0,0,1-.33.94,1.64,1.64,0,0,1-1.1.3h-4.93a1.69,1.69,0,0,1-1.1-.29,1.2,1.2,0,0,1-.32-1,1.24,1.24,0,0,1,.32-1,1.69,1.69,0,0,1,1.1-.29h1.75l1-2.26-3.4-7.67h-.18a1.11,1.11,0,0,1-1.25-1.23,1.22,1.22,0,0,1,.32-.95,1.7,1.7,0,0,1,1.11-.28h2.85a1.7,1.7,0,0,1,1.11.29,1.21,1.21,0,0,1,.32.94,1.11,1.11,0,0,1-1.24,1.23Z"/><path d="M48.19,70.68l-6.7,0a66.51,66.51,0,0,0,.91,24.09H49a7.2,7.2,0,0,1,3.9.83,3.82,3.82,0,0,1,1.62,2.69,2.73,2.73,0,0,1-.57,2.69,5.09,5.09,0,0,1-3.38.74l-21.94-.47a9.61,9.61,0,0,1-4-.78A5,5,0,0,1,22.21,98c-.55-1.13-.49-2,.06-2.49s1.73-.78,3.48-.78h6.56a42.1,42.1,0,0,1,.91-24.13l-6.7,0a37.16,37.16,0,0,0-2.68,6.49c-.08.27-.15.54-.22.82a4.23,4.23,0,0,1-1.5,2.47,4.6,4.6,0,0,1-2.92.89,3.6,3.6,0,0,1-2.91-1c-.5-.63-.56-1.63-.07-3,0-.08.06-.17.1-.26a35,35,0,0,1,5.77-9.35,12.6,12.6,0,0,1,3.41-3,7.14,7.14,0,0,1,2.79-.53l22.54-.48a3.5,3.5,0,0,1,2.35.52c.42.37.8,1.51,1.14,3.4.54,3.19,1.16,6.39,1.8,9.59l0,.26a3.48,3.48,0,0,1-.45,2.92,3.79,3.79,0,0,1-2.91.9,4.3,4.3,0,0,1-3-.89,4.88,4.88,0,0,1-1.19-3.22C48.39,75,48.26,72.83,48.19,70.68Z"/></g></g></svg>