<?xml version='1.0' encoding='utf-8'?>
<!DOCTYPE svg PUBLIC '-//W3C//DTD SVG 1.1//EN' 'http://www.w3.org/Graphics/SVG/1.1/DTD/svg11.dtd'>
<svg version="1.1" xmlns="http://www.w3.org/2000/svg" viewBox="0 0 512 512" xmlns:xlink="http://www.w3.org/1999/xlink" enable-background="new 0 0 512 512">
  <g>
    <g>
      <path d="M323.8,114.2V50.6H188.2v63.6H11v347.2h490V114.2H323.8z M209.1,70.4H304v93.8h-94.9V70.4z M480.1,441.6H31.9V135.1h156.4    v50h135.5v-50h156.4V441.6z"/>
      <path d="m159,307.1c25,0 45.9-20.9 46.9-46.9 0-26.1-20.9-46.9-46.9-46.9s-46.9,20.9-46.9,46.9c0,26 20.9,46.9 46.9,46.9zm0-73c14.6,0 26.1,11.5 26.1,26.1s-11.5,26.1-26.1,26.1c-14.6,0-26.1-11.5-26.1-26.1s11.5-26.1 26.1-26.1z"/>
      <path d="m158,320.6c-52.1,0-93.8,42.7-93.8,93.8h20.8c0-40.7 32.3-73 73-73s73,32.3 73,73h20.9c-0.1-51-41.8-93.8-93.9-93.8z"/>
      <rect width="127.2" x="306" y="281" height="20.9"/>
      <rect width="127.2" x="306" y="350.9" height="20.9"/>
    </g>
  </g>
</svg>
