<svg width="32" height="44" viewBox="0 0 32 44" fill="none" xmlns="http://www.w3.org/2000/svg">
<path d="M16.1723 2C19.931 2 23.5358 3.49315 26.1936 6.15096C28.8514 8.80878 30.3445 12.4135 30.3445 16.1723C30.3065 18.9067 29.517 21.578 28.0623 23.8937C24.9102 29.1032 16.1723 42 16.1723 42C16.1723 42 7.43433 29.1032 4.28222 23.8937C2.82755 21.578 2.038 18.9067 2 16.1723C2 12.4135 3.49315 8.80878 6.15096 6.15096C8.80878 3.49315 12.4135 2 16.1723 2" stroke="#5EDEFC" stroke-width="3" stroke-linecap="round" stroke-linejoin="round"/>
<path d="M16.1722 22.4913C19.6809 22.4913 22.5253 19.647 22.5253 16.1382C22.5253 12.6295 19.6809 9.78516 16.1722 9.78516C12.6635 9.78516 9.81909 12.6295 9.81909 16.1382C9.81909 19.647 12.6635 22.4913 16.1722 22.4913Z" stroke="#5EDEFC" stroke-width="3" stroke-linecap="round" stroke-linejoin="round"/>
</svg>
